<svg version="1.1" id="Layer_1" xmlns="http://www.w3.org/2000/svg" xmlns:xlink="http://www.w3.org/1999/xlink" x="0px" y="0px"
	 width="100%" viewBox="0 0 5000 5000" enable-background="new 0 0 5000 5000" xml:space="preserve">
<path fill="#000000" opacity="1.000000" stroke="none" 
	d="
M2192.000000,5004.000000 
	C1461.333374,5004.000000 732.666687,5004.000000 4.000000,5004.000000 
	C4.000000,3337.333252 4.000000,1670.666626 4.000000,4.000001 
	C1670.666626,4.000000 3337.333252,4.000000 5004.000000,4.000000 
	C5004.000000,1670.666626 5004.000000,3337.333252 5004.000000,5004.000000 
	C4067.333252,5004.000000 3130.666748,5004.000000 2192.000000,5004.000000 
M2302.206055,2168.187744 
	C2215.964600,2270.706543 2129.725342,2373.227539 2043.473022,2475.737305 
	C2040.043579,2479.813232 2036.820923,2484.142090 2032.934082,2487.739258 
	C2022.906494,2497.019531 2010.270630,2497.487549 2000.290283,2489.391602 
	C1990.030518,2481.068848 1988.076294,2466.874512 1995.922241,2455.318115 
	C1998.901733,2450.929688 2002.528076,2446.971680 2005.953857,2442.896973 
	C2158.220215,2261.791992 2310.502197,2080.700195 2462.745361,1899.575928 
	C2466.901123,1894.631714 2470.649902,1889.345581 2474.689697,1884.087402 
	C2471.476562,1879.890381 2469.196289,1876.652588 2466.656738,1873.632568 
	C2381.295898,1772.119751 2295.603516,1670.883667 2210.612793,1569.061646 
	C2122.213623,1463.156372 1981.375000,1415.537354 1847.473145,1443.171143 
	C1706.739502,1472.214722 1593.532837,1580.808350 1559.492676,1720.197510 
	C1549.919800,1759.397095 1547.689453,1799.172729 1547.684692,1839.208008 
	C1547.630493,2293.163330 1547.672363,2747.118408 1547.588257,3201.073730 
	C1547.583618,3226.520508 1550.288940,3251.564453 1555.558105,3276.434082 
	C1596.564453,3469.974365 1780.895264,3603.380371 1983.519653,3570.919434 
	C2073.605225,3556.487305 2149.069580,3513.970215 2208.495605,3444.191162 
	C2240.041016,3407.149658 2271.207764,3369.785400 2302.524658,3332.549316 
	C2523.889404,3069.343994 2745.254639,2806.139160 2966.607666,2542.924316 
	C3104.738525,2378.670654 3243.731201,2215.130615 3380.647461,2049.870850 
	C3466.973389,1945.674072 3489.849365,1826.037109 3450.296143,1697.053101 
	C3403.132080,1543.250854 3270.359863,1455.285278 3145.399414,1439.109497 
	C3057.581543,1427.741577 2975.759521,1443.879761 2899.643066,1488.914795 
	C2862.554932,1510.858398 2831.147217,1539.349731 2803.447998,1572.314209 
	C2637.083740,1770.301392 2470.524414,1968.124878 2302.206055,2168.187744 
M3464.254639,3145.994629 
	C3454.057861,3077.143799 3426.807373,3015.841553 3382.394775,2962.288086 
	C3354.746582,2928.948975 3326.677002,2895.959229 3298.798340,2862.811035 
	C3212.589111,2760.307373 3126.402588,2657.785156 3040.108643,2555.353027 
	C3035.953857,2550.421143 3032.851074,2544.133301 3025.344971,2541.749512 
	C2862.896484,2734.832520 2700.372314,2928.005371 2537.751465,3121.292969 
	C2540.489258,3125.018311 2542.296631,3127.796143 2544.414062,3130.313232 
	C2633.205322,3235.866699 2721.294922,3342.021973 2811.072754,3446.729980 
	C2881.583008,3528.966309 2972.921387,3570.814209 3080.716553,3575.447021 
	C3156.590820,3578.707764 3227.242676,3559.333984 3291.708496,3519.046631 
	C3421.629639,3437.854004 3484.984375,3290.687012 3464.254639,3145.994629 
z"/>
<path fill="#FFFFFF" opacity="1.000000" stroke="none" 
	d="
M2303.118164,2167.095703 
	C2470.524414,1968.124878 2637.083740,1770.301392 2803.447998,1572.314209 
	C2831.147217,1539.349731 2862.554932,1510.858398 2899.643066,1488.914795 
	C2975.759521,1443.879761 3057.581543,1427.741577 3145.399414,1439.109497 
	C3270.359863,1455.285278 3403.132080,1543.250854 3450.296143,1697.053101 
	C3489.849365,1826.037109 3466.973389,1945.674072 3380.647461,2049.870850 
	C3243.731201,2215.130615 3104.738525,2378.670654 2966.607666,2542.924316 
	C2745.254639,2806.139160 2523.889404,3069.343994 2302.524658,3332.549316 
	C2271.207764,3369.785400 2240.041016,3407.149658 2208.495605,3444.191162 
	C2149.069580,3513.970215 2073.605225,3556.487305 1983.519653,3570.919434 
	C1780.895264,3603.380371 1596.564453,3469.974365 1555.558105,3276.434082 
	C1550.288940,3251.564453 1547.583618,3226.520508 1547.588257,3201.073730 
	C1547.672363,2747.118408 1547.630493,2293.163330 1547.684692,1839.208008 
	C1547.689453,1799.172729 1549.919800,1759.397095 1559.492676,1720.197510 
	C1593.532837,1580.808350 1706.739502,1472.214722 1847.473145,1443.171143 
	C1981.375000,1415.537354 2122.213623,1463.156372 2210.612793,1569.061646 
	C2295.603516,1670.883667 2381.295898,1772.119751 2466.656738,1873.632568 
	C2469.196289,1876.652588 2471.476562,1879.890381 2474.689697,1884.087402 
	C2470.649902,1889.345581 2466.901123,1894.631714 2462.745361,1899.575928 
	C2310.502197,2080.700195 2158.220215,2261.791992 2005.953857,2442.896973 
	C2002.528076,2446.971680 1998.901733,2450.929688 1995.922241,2455.318115 
	C1988.076294,2466.874512 1990.030518,2481.068848 2000.290283,2489.391602 
	C2010.270630,2497.487549 2022.906494,2497.019531 2032.934082,2487.739258 
	C2036.820923,2484.142090 2040.043579,2479.813232 2043.473022,2475.737305 
	C2129.725342,2373.227539 2215.964600,2270.706543 2303.118164,2167.095703 
z"/>
<path fill="#FEFEFE" opacity="1.000000" stroke="none" 
	d="
M3464.425293,3147.756348 
	C3484.984375,3290.687012 3421.629639,3437.854004 3291.708496,3519.046631 
	C3227.242676,3559.333984 3156.590820,3578.707764 3080.716553,3575.447021 
	C2972.921387,3570.814209 2881.583008,3528.966309 2811.072754,3446.729980 
	C2721.294922,3342.021973 2633.205322,3235.866699 2544.414062,3130.313232 
	C2542.296631,3127.796143 2540.489258,3125.018311 2537.751465,3121.292969 
	C2700.372314,2928.005371 2862.896484,2734.832520 3025.344971,2541.749512 
	C3032.851074,2544.133301 3035.953857,2550.421143 3040.108643,2555.353027 
	C3126.402588,2657.785156 3212.589111,2760.307373 3298.798340,2862.811035 
	C3326.677002,2895.959229 3354.746582,2928.948975 3382.394775,2962.288086 
	C3426.807373,3015.841553 3454.057861,3077.143799 3464.425293,3147.756348 
z"/>
</svg>